<svg xmlns="http://www.w3.org/2000/svg" width="64" height="64" viewBox="0 0 64 64" fill="none">
  <rect width="64" height="64" rx="18" fill="#111111" />
  <circle cx="14" cy="14" r="4" fill="#22C55E" />
  <path
    d="M31.051 14.283a1 1 0 0 1 1.898 0l2.838 10.526a2 2 0 0 0 1.404 1.404l10.526 2.838a1 1 0 0 1 0 1.898l-10.526 2.838a2 2 0 0 0-1.404 1.404l-2.838 10.526a1 1 0 0 1-1.898 0l-2.838-10.526a2 2 0 0 0-1.404-1.404l-10.526-2.838a1 1 0 0 1 0-1.898l10.526-2.838a2 2 0 0 0 1.404-1.404z"
    fill="#F8FAFC"
  />
</svg>
